Coordinates
version=1
nRows=13
nColumns=40
inDegrees=yes

Units are S.I. units (second, meters, Newtons, ...)
Angles are in degrees.

endheader
time	pelvis_tilt	pelvis_list	pelvis_rotation	pelvis_tx	pelvis_ty	pelvis_tz	hip_flexion_r	hip_adduction_r	hip_rotation_r	knee_angle_r	knee_angle_r_beta	ankle_angle_r	subtalar_angle_r	mtp_angle_r	hip_flexion_l	hip_adduction_l	hip_rotation_l	knee_angle_l	knee_angle_l_beta	ankle_angle_l	subtalar_angle_l	mtp_angle_l	lumbar_extension	lumbar_bending	lumbar_rotation	arm_flex_r	arm_add_r	arm_rot_r	elbow_flex_r	pro_sup_r	wrist_flex_r	wrist_dev_r	arm_flex_l	arm_add_l	arm_rot_l	elbow_flex_l	pro_sup_l	wrist_flex_l	wrist_dev_l
      0.00000000	      1.55025467	     25.65451723	     76.44906934	      0.47217223	      1.02398592	     -1.16463233	     -2.92395093	     -4.82167462	      7.18054587	     56.64939567	      0.98871847	      8.51879011	      0.00000000	      0.00000000	    -26.95804678	      8.31209001	     -9.64037493	      2.29738349	      0.04009691	      8.49433713	      0.00000000	      0.00000000	    -36.85378181	     -4.81694035	      1.47344551	      3.88459878	     -8.93577414	      0.58078200	    138.60878598	     85.93088061	      0.00000000	      0.00000000	      2.10620915	    -11.34380356	     -2.72100183	    140.37343979	     81.29912054	      0.00000000	      0.00000000
      0.01000000	      1.73332604	     25.33082212	     76.79322812	      0.47168798	      1.02428618	     -1.16379535	     -2.12230002	     -4.29856707	      6.73925944	     54.79132987	      0.95628911	      9.59813421	      0.00000000	      0.00000000	    -27.52546313	      8.09531715	     -9.32188325	      1.88103159	      0.03283019	      8.78215203	      0.00000000	      0.00000000	    -36.72469114	     -4.37226846	      1.09490103	      3.71092972	     -8.97504746	      0.51463752	    138.70222161	     85.70554992	      0.00000000	      0.00000000	      2.28692587	    -11.57725625	     -2.65282472	    140.47681386	     81.17601887	      0.00000000	      0.00000000
      0.02000000	      1.89693562	     24.98381363	     77.28020952	      0.47112347	      1.02468852	     -1.16243395	     -1.26789319	     -3.72978107	      6.17312654	     52.16609593	      0.91047013	     10.30431416	      0.00000000	      0.00000000	    -28.25889915	      7.85847484	     -9.05362432	      1.31452042	      0.02294271	      8.88815249	      0.00000000	      0.00000000	    -36.65780300	     -3.89428574	      0.53470043	      3.60362536	     -9.01898961	      0.41753616	    138.72849784	     85.67647649	      0.00000000	      0.00000000	      2.53201534	    -11.86667445	     -2.57967199	    140.59082138	     81.00948792	      0.00000000	      0.00000000
      0.03000000	      1.78979748	     24.62643489	     77.79567134	      0.47036727	      1.02465889	     -1.16084859	     -0.44842261	     -3.61028699	      5.58289045	     49.58811226	      0.86547583	     10.35712759	      0.00000000	      0.00000000	    -28.74128823	      7.86277197	     -8.92003537	      0.86675618	      0.01512775	      8.88521194	      0.00000000	      0.00000000	    -36.55162267	     -3.65544299	     -0.02812635	      3.57949900	     -9.06234704	      0.37049966	    138.73193775	     85.69787752	      0.00000000	      0.00000000	      2.84767496	    -12.15550578	     -2.49879611	    140.64690079	     80.87677849	      0.00000000	      0.00000000
      0.04000000	      1.66800192	     24.16533984	     78.09453261	      0.47016444	      1.02404475	     -1.15905171	      0.50422795	     -3.39988155	      5.34889214	     46.86624157	      0.81797022	     10.82378271	      0.00000000	      0.00000000	    -29.03446530	      7.92419744	     -8.96821543	      0.67165364	      0.01172257	      9.26976186	      0.00000000	      0.00000000	    -36.33754939	     -3.56229344	     -0.41695728	      3.58023161	     -9.09161224	      0.34191237	    138.69472455	     85.67605705	      0.00000000	      0.00000000	      3.14426603	    -12.46151172	     -2.45587483	    140.72897754	     80.69478319	      0.00000000	      0.00000000
      0.05000000	      1.56047319	     23.67796560	     78.40908540	      0.47002893	      1.02316279	     -1.15733911	      1.42489970	     -3.21191627	      4.91307335	     44.03922694	      0.76862951	     11.17269558	      0.00000000	      0.00000000	    -29.24008801	      7.94810795	     -8.85064561	      0.59707523	      0.01042093	      9.73755578	      0.00000000	      0.00000000	    -36.07728508	     -3.45751077	     -0.79337836	      3.59702547	     -9.13903311	      0.31945066	    138.60180222	     85.82212223	      0.00000000	      0.00000000	      3.40547934	    -12.70738443	     -2.40856091	    140.75779137	     80.41718210	      0.00000000	      0.00000000
      0.06000000	      1.36219367	     23.14333359	     78.65119655	      0.46975440	      1.02191777	     -1.15560019	      2.33959682	     -3.25571505	      4.32670258	     40.97817721	      0.71520411	     11.34089835	      0.00000000	      0.00000000	    -29.36439646	      8.11378089	     -8.87952498	      0.50494438	      0.00881294	     10.07726471	      0.00000000	      0.00000000	    -35.77496302	     -3.44096680	     -1.05893686	      3.51612908	     -9.26327995	      0.39251752	    138.59815916	     85.54370302	      0.00000000	      0.00000000	      3.67841333	    -12.87228857	     -2.32204797	    140.71609245	     80.11421243	      0.00000000	      0.00000000
      0.07000000	      1.20739285	     22.61491189	     79.00730129	      0.46945356	      1.02052531	     -1.15380574	      3.04406622	     -3.27722291	      3.52220564	     37.54142665	      0.65522150	     10.89843741	      0.00000000	      0.00000000	    -29.48991904	      8.16221651	     -8.90026599	      0.48619012	      0.00848562	     10.64538085	      0.00000000	      0.00000000	    -35.51171818	     -3.33084428	     -1.40872785	      3.46799207	     -9.38387221	      0.47774648	    138.59163317	     85.64001859	      0.00000000	      0.00000000	      3.94519435	    -13.01649525	     -2.28765598	    140.69602281	     79.95568190	      0.00000000	      0.00000000
      0.08000000	      0.90317860	     22.07444696	     79.19739750	      0.46969197	      1.01868419	     -1.15183718	      3.83994066	     -3.35810033	      3.07885342	     34.22828657	      0.59739630	     10.66984182	      0.00000000	      0.00000000	    -29.56346362	      8.43489721	     -8.85797870	      0.46413780	      0.00810073	     11.17119059	      0.00000000	      0.00000000	    -35.19347909	     -3.48661074	     -1.64557773	      3.46856161	     -9.41328507	      0.60455652	    138.53014776	     85.81307594	      0.00000000	      0.00000000	      4.23051785	    -13.16176504	     -2.23982680	    140.70701373	     79.22163383	      0.00000000	      0.00000000
      0.09000000	      0.56005242	     21.48686647	     79.24850889	      0.47001982	      1.01647261	     -1.15008487	      4.65739036	     -3.49911050	      2.67396298	     30.80969136	      0.53773056	     10.29987259	      0.00000000	      0.00000000	    -29.58987710	      8.82056070	     -9.04814153	      0.41827114	      0.00730021	     11.67401753	      0.00000000	      0.00000000	    -34.77204413	     -3.73019261	     -1.75109954	      3.42307646	     -9.49373775	      0.65747072	    138.43915002	     86.40486276	      0.00000000	      0.00000000	      4.41737608	    -13.24212545	     -2.26329080	    140.56986915	     79.71299842	      0.00000000	      0.00000000
      0.10000000	      0.28875633	     20.91398728	     79.15972231	      0.47093416	      1.01415131	     -1.14812736	      5.32727755	     -3.45369508	      2.53901411	     27.16246005	      0.47407436	      9.89504419	      0.00000000	      0.00000000	    -29.63741730	      9.15023872	     -9.36511176	      0.38532463	      0.00672518	     12.17937746	      0.00000000	      0.00000000	    -34.40668483	     -4.02335278	     -1.73141891	      3.43676320	     -9.51137972	      0.80089633	    138.39540502	     86.02011076	      0.00000000	      0.00000000	      4.59156392	    -13.35327650	     -2.23310099	    140.53871411	     79.44463924	      0.00000000	      0.00000000
      0.11000000	      0.05796387	     20.31098975	     79.01649421	      0.47195790	      1.01159773	     -1.14634249	      5.93703189	     -3.28068567	      2.66716852	     23.40607012	      0.40851299	      9.27568473	      0.00000000	      0.00000000	    -29.68567357	      9.45808969	     -9.68950899	      0.37371863	      0.00652262	     12.67195670	      0.00000000	      0.00000000	    -33.97710126	     -4.27113476	     -1.61088492	      3.40647014	     -9.53670303	      0.93192304	    138.33694931	     85.90598855	      0.00000000	      0.00000000	      4.74100284	    -13.39922033	     -2.21567710	    140.43790328	     79.09770073	      0.00000000	      0.00000000
      0.12000000	     -0.22992180	     19.70797181	     78.71917714	      0.47343412	      1.00869982	     -1.14463864	      6.57486604	     -3.08352190	      3.28997734	     19.81283130	      0.34579914	      8.89992734	      0.00000000	      0.00000000	    -29.70921642	      9.88119275	    -10.13941730	      0.35427226	      0.00618322	     12.90332753	      0.00000000	      0.00000000	    -33.51113998	     -4.67385476	     -1.37903253	      3.34411600	     -9.51377882	      1.07492456	    138.31102034	     85.93240927	      0.00000000	      0.00000000	      4.87119861	    -13.48362697	     -2.20186676	    140.41830339	     79.00444663	      0.00000000	      0.00000000
